<svg width="95" height="29" viewBox="0 0 95 29" fill="none" xmlns="http://www.w3.org/2000/svg">
<path d="M24.4536 6.15123L16.0813 7.21438C15.4838 7.29025 15.036 7.79859 15.036 8.40089V16.9806C15.036 17.5793 15.4787 18.0858 16.0721 18.1659L24.4444 19.2955C25.162 19.3923 25.8004 18.8343 25.8004 18.1102V7.33774C25.8004 6.61739 25.1683 6.06048 24.4536 6.15123Z" fill="#161616"/>
<path d="M19.1924 0.237602L0.995449 3.33335C0.420557 3.43115 0 3.9293 0 4.51245V21.4463C0 22.0349 0.428303 22.5361 1.00976 22.6277L19.2067 25.497C19.9326 25.6114 20.589 25.0504 20.589 24.3155V20.6317C20.589 20.4605 20.4624 20.3157 20.2927 20.293L14.6207 19.5321C14.0269 19.4524 13.5836 18.9458 13.5836 18.3467V12.8575V7.33109C13.5836 6.7482 14.0038 6.2502 14.5784 6.15211L20.3048 5.17442C20.469 5.1464 20.589 5.00411 20.589 4.83757V1.4167C20.589 0.675993 19.9226 0.113374 19.1924 0.237602Z" fill="#1252D3"/>
<path d="M5.26259 14.4835C5.31726 14.9345 5.45395 15.2626 5.63165 15.495C5.95971 15.8914 6.53381 16.0964 7.34029 16.0964C7.83237 16.0964 8.22877 16.0417 8.52949 15.9324C9.1036 15.7273 9.39065 15.3446 9.39065 14.7978C9.39065 14.4698 9.25396 14.2237 8.9669 14.046C8.67985 13.8683 8.22877 13.718 7.61367 13.5813L6.57482 13.3489C5.56331 13.1165 4.85252 12.8705 4.45611 12.5971C3.8 12.1324 3.45827 11.4353 3.45827 10.4647C3.45827 9.57626 3.78633 8.8518 4.42877 8.26403C5.05755 7.68993 6.00072 7.38921 7.2446 7.38921C8.28345 7.38921 9.17194 7.66259 9.8964 8.20935C10.6345 8.76978 11.0173 9.56259 11.0446 10.6151H9.07626C9.03525 10.0137 8.77554 9.58993 8.29712 9.34388C7.98273 9.17986 7.57266 9.09784 7.10791 9.09784C6.57482 9.09784 6.15108 9.20719 5.83669 9.4259C5.5223 9.63094 5.35827 9.93165 5.35827 10.3144C5.35827 10.6698 5.5223 10.9295 5.83669 11.1072C6.02806 11.2165 6.4518 11.3532 7.10791 11.5173L8.80288 11.9137C9.55467 12.105 10.1151 12.3374 10.4842 12.6381C11.0719 13.0892 11.3727 13.7727 11.3727 14.6475C11.3727 15.536 11.0309 16.2878 10.3475 16.8755C9.65036 17.477 8.67985 17.7777 7.4223 17.7777C6.15108 17.7777 5.13957 17.477 4.40144 16.8892C3.66331 16.3151 3.30791 15.5086 3.30791 14.4835H5.26259Z" fill="white"/>
<path d="M21.4548 14.7644H20.6446L20.416 14.0287H19.0938L18.8503 14.7644H18.0649L19.3423 11.1856H20.1873L21.4548 14.7644ZM19.7599 12.0057L19.2976 13.4124H20.2072L19.7599 12.0057ZM21.8459 11.1856H22.5915V14.7644H21.8459V11.1856Z" fill="white"/>
<path d="M36.6657 17.2134C36.7713 18.0848 37.0354 18.7185 37.3787 19.1674C38.0124 19.9332 39.1215 20.3293 40.6795 20.3293C41.6301 20.3293 42.3959 20.2237 42.9768 20.0124C44.0858 19.6163 44.6404 18.877 44.6404 17.8207C44.6404 17.187 44.3763 16.7117 43.8218 16.3684C43.2673 16.0251 42.3959 15.7346 41.2076 15.4706L39.2007 15.0217C37.2467 14.5728 35.8735 14.0974 35.1078 13.5693C33.8403 12.6715 33.1801 11.3248 33.1801 9.44996C33.1801 7.73357 33.8139 6.33404 35.0549 5.19857C36.2696 4.08952 38.0916 3.50858 40.4946 3.50858C42.5015 3.50858 44.2179 4.0367 45.6174 5.09295C47.0433 6.1756 47.7827 7.70716 47.8355 9.74043H44.033C43.9538 8.57856 43.4521 7.75997 42.5279 7.28466C41.9205 6.96779 41.1284 6.80935 40.2305 6.80935C39.2007 6.80935 38.3821 7.0206 37.7748 7.4431C37.1674 7.83919 36.8506 8.42013 36.8506 9.1595C36.8506 9.84606 37.1674 10.3478 37.7748 10.6911C38.1445 10.9023 38.9631 11.1664 40.2305 11.4832L43.5049 12.249C44.9572 12.6187 46.0399 13.0676 46.7529 13.6485C47.8883 14.5199 48.4693 15.8403 48.4693 17.5302C48.4693 19.2466 47.8091 20.699 46.4888 21.8344C45.1421 22.9963 43.2673 23.5773 40.8379 23.5773C38.3821 23.5773 36.4281 22.9963 35.0021 21.8609C33.5762 20.7518 32.8896 19.1938 32.8896 17.2134H36.6657ZM51.1889 4.06311H54.8593V23.0755H51.1889V4.06311ZM58.5119 3.95749H62.2351V7.33747H58.5119V3.95749ZM62.2351 23.0755H58.5119V9.02747H62.2351V23.0755ZM73.2549 9.23872C73.9151 9.6084 74.4696 10.1365 74.8657 10.7967V4.08952H78.589V23.0755H75.0242V21.1215C74.496 21.9665 73.9151 22.5738 73.2285 22.9435C72.5684 23.3132 71.7234 23.5244 70.72 23.5244C69.0828 23.5244 67.7097 22.8379 66.6006 21.5176C65.4651 20.1973 64.9106 18.4809 64.9106 16.4212C64.9106 14.0182 65.4651 12.117 66.5742 10.7439C67.6568 9.37075 69.1356 8.68419 70.984 8.68419C71.829 8.68419 72.5948 8.86903 73.2549 9.23872ZM74.1528 19.2466C74.7073 18.4809 74.9713 17.4774 74.9713 16.2628C74.9713 14.5464 74.5488 13.3053 73.6774 12.5659C73.1493 12.117 72.5156 11.9057 71.8026 11.9057C70.7464 11.9057 69.9542 12.3018 69.4525 13.1204C68.9507 13.9126 68.6867 14.9424 68.6867 16.1307C68.6867 17.451 68.9507 18.4809 69.4789 19.2466C69.9806 20.0388 70.7464 20.4085 71.8026 20.4085C72.8324 20.4085 73.6246 20.0388 74.1528 19.2466ZM82.9811 25.7954C83.3508 25.8218 83.694 25.7954 84.0109 25.769C84.3278 25.7162 84.6183 25.6105 84.8295 25.4521C85.0672 25.3201 85.252 25.0032 85.4368 24.5543C85.6217 24.079 85.7009 23.7885 85.6745 23.6829L80.4989 9.02747H84.5918L87.655 19.3787L90.5596 9.02747H94.4677L89.6354 22.8379C88.7112 25.5049 87.9718 27.1685 87.4437 27.8022C86.8892 28.436 85.8065 28.7529 84.1958 28.7529H83.4036C83.2187 28.7529 82.9283 28.7265 82.5058 28.7V25.769L82.9811 25.7954Z" fill="#161616"/>
</svg>
