<svg width="95" height="30" viewBox="0 0 95 30" fill="none" xmlns="http://www.w3.org/2000/svg">
<path d="M24.4538 6.65123L16.0815 7.71438C15.484 7.79025 15.0361 8.29859 15.0361 8.90089V17.4806C15.0361 18.0793 15.4789 18.5858 16.0723 18.6659L24.4446 19.7955C25.1622 19.8923 25.8005 19.3343 25.8005 18.6102V7.83774C25.8005 7.11739 25.1684 6.56048 24.4538 6.65123Z" fill="#FAFDFF"/>
<path d="M19.1924 0.737602L0.995449 3.83335C0.420557 3.93115 0 4.4293 0 5.01245V21.9463C0 22.5349 0.428303 23.0361 1.00976 23.1277L19.2067 25.997C19.9326 26.1114 20.589 25.5504 20.589 24.8155V21.1317C20.589 20.9605 20.4624 20.8157 20.2927 20.793L14.6207 20.0321C14.0269 19.9524 13.5836 19.4458 13.5836 18.8467V13.3575V7.83109C13.5836 7.2482 14.0038 6.7502 14.5784 6.65211L20.3048 5.67442C20.469 5.6464 20.589 5.50411 20.589 5.33757V1.9167C20.589 1.17599 19.9226 0.613374 19.1924 0.737602Z" fill="#A1D8EE"/>
<path d="M5.26266 14.9835C5.31734 15.4345 5.45403 15.7626 5.63173 15.995C5.95979 16.3914 6.53389 16.5964 7.34036 16.5964C7.83245 16.5964 8.22885 16.5417 8.52957 16.4324C9.10367 16.2273 9.39072 15.8446 9.39072 15.2978C9.39072 14.9698 9.25403 14.7237 8.96698 14.546C8.67993 14.3683 8.22885 14.218 7.61374 14.0813L6.57489 13.8489C5.56338 13.6165 4.85259 13.3705 4.45619 13.0971C3.80007 12.6324 3.45835 11.9353 3.45835 10.9647C3.45835 10.0763 3.7864 9.3518 4.42885 8.76403C5.05763 8.18993 6.00079 7.88921 7.24468 7.88921C8.28353 7.88921 9.17202 8.16259 9.89648 8.70935C10.6346 9.26978 11.0173 10.0626 11.0447 11.1151H9.07633C9.03533 10.5137 8.77561 10.0899 8.2972 9.84388C7.98281 9.67986 7.57274 9.59784 7.10799 9.59784C6.57489 9.59784 6.15115 9.70719 5.83676 9.9259C5.52238 10.1309 5.35835 10.4317 5.35835 10.8144C5.35835 11.1698 5.52238 11.4295 5.83676 11.6072C6.02813 11.7165 6.45187 11.8532 7.10799 12.0173L8.80295 12.4137C9.55475 12.605 10.1152 12.8374 10.4842 13.1381C11.072 13.5892 11.3727 14.2727 11.3727 15.1475C11.3727 16.036 11.031 16.7878 10.3476 17.3755C9.65043 17.977 8.67993 18.2777 7.42238 18.2777C6.15115 18.2777 5.13964 17.977 4.40151 17.3892C3.66338 16.8151 3.30799 16.0086 3.30799 14.9835H5.26266Z" fill="#262728"/>
<path d="M21.4546 15.2644H20.6444L20.4158 14.5287H19.0936L18.85 15.2644H18.0647L19.3421 11.6856H20.1871L21.4546 15.2644ZM19.7597 12.5057L19.2974 13.9124H20.207L19.7597 12.5057ZM21.8457 11.6856H22.5913V15.2644H21.8457V11.6856Z" fill="#262728"/>
<path d="M36.6659 17.7134C36.7715 18.5848 37.0356 19.2185 37.3789 19.6674C38.0126 20.4332 39.1217 20.8293 40.6796 20.8293C41.6303 20.8293 42.396 20.7237 42.977 20.5124C44.086 20.1163 44.6406 19.377 44.6406 18.3207C44.6406 17.687 44.3765 17.2117 43.822 16.8684C43.2674 16.5251 42.396 16.2346 41.2078 15.9706L39.2009 15.5217C37.2468 15.0728 35.8737 14.5974 35.1079 14.0693C33.8404 13.1715 33.1803 11.8248 33.1803 9.94996C33.1803 8.23357 33.814 6.83404 35.0551 5.69857C36.2698 4.58952 38.0918 4.00858 40.4948 4.00858C42.5017 4.00858 44.2181 4.5367 45.6176 5.59295C47.0435 6.6756 47.7829 8.20716 47.8357 10.2404H44.0332C43.954 9.07856 43.4523 8.25997 42.5281 7.78466C41.9207 7.46779 41.1285 7.30935 40.2307 7.30935C39.2009 7.30935 38.3823 7.5206 37.775 7.9431C37.1676 8.33919 36.8507 8.92013 36.8507 9.6595C36.8507 10.3461 37.1676 10.8478 37.775 11.1911C38.1446 11.4023 38.9632 11.6664 40.2307 11.9832L43.5051 12.749C44.9574 13.1187 46.0401 13.5676 46.753 14.1485C47.8885 15.0199 48.4694 16.3403 48.4694 18.0302C48.4694 19.7466 47.8093 21.199 46.489 22.3344C45.1423 23.4963 43.2674 24.0773 40.8381 24.0773C38.3823 24.0773 36.4282 23.4963 35.0023 22.3609C33.5764 21.2518 32.8898 19.6938 32.8898 17.7134H36.6659ZM51.1891 4.56311H54.8595V23.5755H51.1891V4.56311ZM58.512 4.45749H62.2353V7.83747H58.512V4.45749ZM62.2353 23.5755H58.512V9.52747H62.2353V23.5755ZM73.2551 9.73872C73.9153 10.1084 74.4698 10.6365 74.8659 11.2967V4.58952H78.5892V23.5755H75.0243V21.6215C74.4962 22.4665 73.9153 23.0738 73.2287 23.4435C72.5686 23.8132 71.7236 24.0244 70.7201 24.0244C69.083 24.0244 67.7098 23.3379 66.6008 22.0176C65.4653 20.6973 64.9108 18.9809 64.9108 16.9212C64.9108 14.5182 65.4653 12.617 66.5744 11.2439C67.657 9.87075 69.1358 9.18419 70.9842 9.18419C71.8292 9.18419 72.595 9.36903 73.2551 9.73872ZM74.1529 19.7466C74.7075 18.9809 74.9715 17.9774 74.9715 16.7628C74.9715 15.0464 74.549 13.8053 73.6776 13.0659C73.1495 12.617 72.5158 12.4057 71.8028 12.4057C70.7465 12.4057 69.9544 12.8018 69.4526 13.6204C68.9509 14.4126 68.6869 15.4424 68.6869 16.6307C68.6869 17.951 68.9509 18.9809 69.479 19.7466C69.9808 20.5388 70.7465 20.9085 71.8028 20.9085C72.8326 20.9085 73.6248 20.5388 74.1529 19.7466ZM82.9813 26.2954C83.3509 26.3218 83.6942 26.2954 84.0111 26.269C84.328 26.2162 84.6184 26.1105 84.8297 25.9521C85.0673 25.8201 85.2522 25.5032 85.437 25.0543C85.6219 24.579 85.7011 24.2885 85.6747 24.1829L80.4991 9.52747H84.592L87.6551 19.8787L90.5598 9.52747H94.4679L89.6356 23.3379C88.7114 26.0049 87.972 27.6685 87.4439 28.3022C86.8894 28.936 85.8067 29.2529 84.1959 29.2529H83.4038C83.2189 29.2529 82.9284 29.2265 82.5059 29.2V26.269L82.9813 26.2954Z" fill="#FAFDFF"/>
</svg>
