<svg width="12" height="12" viewBox="0 0 12 12" fill="none" xmlns="http://www.w3.org/2000/svg">
<path d="M11.4735 11.5595C11.6285 11.5595 11.7542 11.4338 11.7542 11.2788L11.7542 0.910089C11.7542 0.822845 11.7371 0.736451 11.7037 0.655842C11.6703 0.575234 11.6214 0.501992 11.5597 0.440301C11.498 0.378611 11.4248 0.32968 11.3441 0.296306C11.2635 0.262932 11.1771 0.245768 11.0899 0.245796L0.72121 0.245796C0.566173 0.245796 0.440494 0.371486 0.440508 0.526523L0.440577 1.29383C0.440591 1.44884 0.566261 1.5745 0.721279 1.5745L9.48585 1.5745L0.168914 10.8914C0.0592933 11.0011 0.0592943 11.1788 0.168915 11.2884L0.711576 11.8311C0.821197 11.9407 0.998928 11.9407 1.10855 11.8311L10.4255 2.51413L10.4256 11.2788C10.4256 11.4338 10.5513 11.5595 10.7063 11.5595H11.4735Z" fill="#EFF2F5"/>
</svg>
