<svg width="13" height="12" viewBox="0 0 13 12" fill="none" xmlns="http://www.w3.org/2000/svg">
<path d="M6.056 11.6825L5.35574 9.61673C4.969 8.47584 4.06874 7.54605 2.88323 7.14421L0.817469 6.44397C0.394142 6.30046 0.394212 5.69946 0.817469 5.55597L2.88323 4.85571C4.02412 4.46899 4.95388 3.56869 5.35574 2.38319L6.056 0.317461C6.19951 -0.105867 6.80052 -0.105773 6.944 0.317461L7.64427 2.38319C8.03101 3.52408 8.93127 4.45385 10.1168 4.85571L12.1825 5.55597C12.6059 5.69948 12.6058 6.30049 12.1825 6.44397L10.1168 7.14421C8.97594 7.53093 8.04613 8.43124 7.64427 9.61673L6.944 11.6825C6.8005 12.1058 6.19947 12.1057 6.056 11.6825Z" fill="#1252D3"/>
</svg>
