<svg width="18" height="18" viewBox="0 0 18 18" fill="none" xmlns="http://www.w3.org/2000/svg">
<path d="M9 9C11.4853 9 13.5 6.98528 13.5 4.5C13.5 2.01472 11.4853 0 9 0C6.51472 0 4.5 2.01472 4.5 4.5C4.5 6.98528 6.51472 9 9 9Z" fill="#1252D3"/>
<path d="M9.9 9H8.1C5.95175 9 3.89148 9.85339 2.37243 11.3724C0.85339 12.8915 0 14.9517 0 17.1C0 17.3387 0.0948211 17.5676 0.263604 17.7364C0.432387 17.9052 0.661305 18 0.9 18H17.1C17.3387 18 17.5676 17.9052 17.7364 17.7364C17.9052 17.5676 18 17.3387 18 17.1C18 14.9517 17.1466 12.8915 15.6276 11.3724C14.1085 9.85339 12.0483 9 9.9 9Z" fill="#1252D3"/>
</svg>
